<svg width="180" height="160" viewBox="0 0 180 160" fill="none" xmlns="http://www.w3.org/2000/svg">
<path d="M140 0C162.09 0 180 17.9102 180 40V120C180 142.09 162.09 160 140 160H40C17.9102 160 0 142.09 0 120V40C0 17.9102 17.9102 0 40 0H140Z" fill="#F3F4F6"/>
<path fill-rule="evenodd" clip-rule="evenodd" d="M180 40C180 17.9102 162.09 0 140 0H40C17.9102 0 0 17.9102 0 40V120C0 142.09 17.9102 160 40 160H140C162.09 160 180 142.09 180 120V40ZM174 120V40C174 21.2227 158.777 6 140 6H40C21.2227 6 6 21.2227 6 40V120C6 138.777 21.2227 154 40 154H140C158.777 154 174 138.777 174 120Z" fill="#FB3B3B"/>
<path fill-rule="evenodd" clip-rule="evenodd" d="M146 118V56.7852H90V129H132C138.703 129 144.305 124.289 145.68 118H146Z" fill="#FB3B3B"/>
<path d="M60 42H66V48H60V42ZM48 42H54V48H48V42ZM72 42H78V48H72V42Z" fill="#FB3B3B"/>
<path fill-rule="evenodd" clip-rule="evenodd" d="M66 78H42V72H66V78ZM80 90H42V84H80V90Z" fill="#FB3B3B"/>
<path d="M118.215 93.9688L101.242 110.941L97 106.699L109.73 93.9688L97.0039 81.2422L101.246 77L118.215 93.9688Z" fill="#F3F4F6"/>
<path fill-rule="evenodd" clip-rule="evenodd" d="M136.461 111.539H118.461V105.539H136.461V111.539Z" fill="#F3F4F6"/>
<path fill-rule="evenodd" clip-rule="evenodd" d="M143.09 114.488C142.199 116.262 141.102 117.84 139.789 119.27C138.391 120.781 136.922 122.02 135.371 123.02C134.059 123.859 133.238 124 132.82 124H47.1797C46.7617 124 45.9414 123.859 44.6289 123.02C43.0781 122.02 41.6094 120.781 40.2109 119.27C38.8984 117.84 37.8008 116.262 36.9102 114.488C36.1719 112.891 36 111.859 36 111.289V60H144V111.289C144 111.859 143.828 112.891 143.09 114.488ZM36.9414 45.2305C37.8086 43.5313 38.8711 41.9883 40.1289 40.6094C41.6016 39.1484 43.1406 37.9414 44.7695 36.9492C46.1094 36.25 47.25 36 48.2617 36H131.738C132.75 36 133.891 36.25 135.23 36.9492C136.859 37.9414 138.398 39.1484 139.871 40.6094C141.129 41.9883 142.191 43.5313 143.059 45.2305C143.738 46.8281 144 48.1914 144 49.3516V54H36V49.3516C36 48.1914 36.2617 46.8281 36.9414 45.2305ZM148.5 42.6914C147.352 40.3906 145.922 38.3203 144.199 36.4492C142.34 34.5898 140.328 33.0117 138.18 31.7188C136.039 30.5703 133.891 30 131.738 30H48.2617C46.1094 30 43.9609 30.5703 41.8203 31.7188C39.6719 33.0117 37.6602 34.5898 35.8008 36.4492C34.0781 38.3203 32.6484 40.3906 31.5 42.6914C30.5 44.9805 30 47.1992 30 49.3516V111.289C30 113.012 30.5 114.949 31.5 117.102C32.6484 119.391 34.0781 121.469 35.8008 123.328C37.5195 125.199 39.3789 126.77 41.3789 128.07C43.3906 129.352 45.3203 130 47.1797 130H132.82C134.68 130 136.609 129.352 138.621 128.07C140.621 126.77 142.48 125.199 144.199 123.328C145.922 121.469 147.352 119.391 148.5 117.102C149.5 114.949 150 113.012 150 111.289V49.3516C150 47.1992 149.5 44.9805 148.5 42.6914Z" fill="#FB3B3B"/>
</svg>
