<svg width="180" height="160" viewBox="0 0 180 160" fill="none" xmlns="http://www.w3.org/2000/svg">
<path d="M140 3H40C19.5655 3 3 19.5655 3 40V120C3 140.435 19.5655 157 40 157H140C160.435 157 177 140.435 177 120V40C177 19.5655 160.435 3 140 3Z" fill="#F3F4F6"/>
<path d="M140 160H40C17.9 160 0 142.1 0 120V40C0 17.9 17.9 0 40 0H140C162.1 0 180 17.9 180 40V120C180 142.1 162.1 160 140 160ZM40 6C21.3 6 6 21.3 6 40V120C6 138.7 21.3 154 40 154H140C158.7 154 174 138.7 174 120V40C174 21.3 158.7 6 140 6H40Z" fill="#FB3B3B"/>
<path d="M90.4 129.3C73.1 129.3 56.3 120.3 47 104.3C33.2 80.4 41.4 49.8 65.3 36C89.2 22.2 119.8 30.4 133.6 54.3C147.4 78.2 139.2 108.8 115.3 122.6C107.4 127.1 98.9 129.3 90.4 129.3ZM68.3 41.2C47.3 53.3 40.1 80.3 52.2 101.3C64.3 122.3 91.3 129.5 112.3 117.4C133.3 105.3 140.5 78.3 128.4 57.3C116.3 36.3 89.3 29.1 68.3 41.2Z" fill="#FB3B3B"/>
<path d="M90.3 115.3C110.182 115.3 126.3 99.1823 126.3 79.3C126.3 59.4178 110.182 43.3 90.3 43.3C70.4178 43.3 54.3 59.4178 54.3 79.3C54.3 99.1823 70.4178 115.3 90.3 115.3Z" fill="#FB3B3B"/>
<path d="M90.3 100.3C101.898 100.3 111.3 90.898 111.3 79.3C111.3 67.702 101.898 58.3 90.3 58.3C78.702 58.3 69.3 67.702 69.3 79.3C69.3 90.898 78.702 100.3 90.3 100.3Z" fill="#FB3B3B"/>
<path d="M90.3 103.3C82 103.3 73.9 99 69.5 91.3C62.9 79.8 66.8 65.1 78.3 58.5C89.8 51.9 104.5 55.8 111.1 67.3C117.7 78.8 113.8 93.5 102.3 100.1C98.5 102.3 94.4 103.3 90.3 103.3ZM81.3 63.7C72.7 68.7 69.7 79.7 74.7 88.3C79.7 96.9 90.7 99.8 99.3 94.9C107.9 89.9 110.9 78.9 105.9 70.3C100.9 61.7 89.9 58.7 81.3 63.7Z" fill="#F3F4F6"/>
<path d="M156.9 54.7L134.6 67.6C134.1 67.9 133.6 67.9 133 67.8L121.4 64.4L93.5 80.5C93.5 80.5 93.3 80.5 93.2 80.5C93.1 80.5 92.9 80.5 92.8 80.5C92.7 80.5 92.5 80.4 92.4 80.3C92.3 80.3 92.2 80.1 92.2 80.1L90.3 76.8C90.3 76.7 90.2 76.6 90.2 76.4C90.2 76.2 90.2 76.1 90.2 76C90.2 75.9 90.2 75.7 90.4 75.6C90.4 75.5 90.6 75.4 90.7 75.3L119.2 58.9L121.8 48.2C121.9 47.7 122.3 47.2 122.7 46.9L145 34L140.7 50.3L157 54.8L156.9 54.7Z" fill="#FB3B3B"/>
<path d="M144.9 33.9L140.6 50.2L156.9 54.7L134.6 67.6C134.3 67.8 133.9 67.9 133.6 67.9C133.3 67.9 133.2 67.9 133 67.9L121.4 64.5L93.5 80.6C93.5 80.6 93.3 80.6 93.2 80.6C93.1 80.6 92.9 80.6 92.8 80.6C92.7 80.6 92.5 80.5 92.4 80.4C92.3 80.4 92.2 80.2 92.2 80.2L90.3 76.9C90.3 76.8 90.2 76.7 90.2 76.5C90.2 76.3 90.2 76.2 90.2 76.1C90.2 76 90.2 75.8 90.4 75.7C90.4 75.6 90.6 75.5 90.7 75.4L119.1 59L121.7 48.3C121.8 47.8 122.2 47.3 122.6 47L144.9 34.1M154.4 21.5L141.9 28.7L119.6 41.6C117.7 42.7 116.3 44.5 115.8 46.6L113.8 54.8L87.6 69.9C86.6 70.5 85.8 71.3 85.2 72.2C85.2 72.3 85.2 72.5 85.2 72.5C84.9 73.1 84.7 73.6 84.5 74.3C84.5 74.4 84.5 74.6 84.5 74.6C84.3 75.3 84.3 76 84.3 76.7C84.3 76.8 84.3 77 84.3 77C84.4 78 84.7 78.9 85.2 79.7L87.1 82.9C87.6 83.7 88.3 84.4 89.1 85C89.7 85.4 90.3 85.7 91 85.9C91.6 86.1 92.3 86.2 92.9 86.2H93.3C94.5 86.2 95.6 85.9 96.6 85.3L122.2 70.5L131.3 73.2C132 73.4 132.8 73.5 133.6 73.5C135 73.5 136.4 73.1 137.6 72.4L159.9 59.5L172.4 52.3L147.9 45.6L150.7 35L154.3 21.1L154.4 21.5Z" fill="#F3F4F6"/>
</svg>
