<svg width="180" height="160" viewBox="0 0 180 160" fill="none" xmlns="http://www.w3.org/2000/svg">
<path d="M140 3H40C19.5655 3 3 19.5655 3 40V120C3 140.435 19.5655 157 40 157H140C160.435 157 177 140.435 177 120V40C177 19.5655 160.435 3 140 3Z" fill="#F3F4F6"/>
<path d="M140 160H40C17.9 160 0 142.1 0 120V40C0 17.9 17.9 0 40 0H140C162.1 0 180 17.9 180 40V120C180 142.1 162.1 160 140 160ZM40 6C21.3 6 6 21.3 6 40V120C6 138.7 21.3 154 40 154H140C158.7 154 174 138.7 174 120V40C174 21.3 158.7 6 140 6H40Z" fill="#FB3B3B"/>
<path d="M111 53.2V124H96V127H33V33H90.8L111 53.2Z" fill="#F3F4F6"/>
<path d="M92 30H30V130H96V124H36V36H89.5L108 54.5V124H114V52L92 30Z" fill="#FB3B3B"/>
<path fill-rule="evenodd" clip-rule="evenodd" d="M90 78H48V72H90V78Z" fill="#FB3B3B"/>
<path fill-rule="evenodd" clip-rule="evenodd" d="M90 90H48V84H90V90Z" fill="#FB3B3B"/>
<path d="M72 54H48V60H72V54Z" fill="#FB3B3B"/>
<path fill-rule="evenodd" clip-rule="evenodd" d="M136 60H96V124H150V74L136 60Z" fill="#FB3B3B"/>
<path d="M124.2 94L107.2 111L103 106.8L115.7 94.1L103 81.4L107.2 77.2L124.2 94.2V94Z" fill="#F3F4F6"/>
<path fill-rule="evenodd" clip-rule="evenodd" d="M142.5 111.5H124.5V105.5H142.5V111.5Z" fill="#F3F4F6"/>
</svg>
