<svg width="180" height="160" viewBox="0 0 180 160" fill="none" xmlns="http://www.w3.org/2000/svg">
<path d="M140 0C162.09 0 180 17.9102 180 40V120C180 142.09 162.09 160 140 160H40C17.9102 160 0 142.09 0 120V40C0 17.9102 17.9102 0 40 0H140Z" fill="#F3F4F6"/>
<path fill-rule="evenodd" clip-rule="evenodd" d="M180 40C180 17.9102 162.09 0 140 0H40C17.9102 0 0 17.9102 0 40V120C0 142.09 17.9102 160 40 160H140C162.09 160 180 142.09 180 120V40ZM174 120V40C174 21.2227 158.777 6 140 6H40C21.2227 6 6 21.2227 6 40V120C6 138.777 21.2227 154 40 154H140C158.777 154 174 138.777 174 120Z" fill="#FB3B3B"/>
<path d="M60 42H66V48H60V42ZM48 42H54V48H48V42ZM72 42H78V48H72V42Z" fill="#FB3B3B"/>
<path fill-rule="evenodd" clip-rule="evenodd" d="M146 116V58H90V127H132C138.703 127 144.305 122.289 145.68 116H146Z" fill="#FB3B3B"/>
<path fill-rule="evenodd" clip-rule="evenodd" d="M100 100H124V94H100V100ZM100 112H138V106H100V112Z" fill="#F3F4F6"/>
<path d="M69 109.809V102.191C69 101.934 68.9297 101.676 68.793 101.418C68.6406 101.16 68.4492 100.93 68.2266 100.723C68.0039 100.496 67.7539 100.328 67.4766 100.207C67.2031 100.07 66.9375 100 66.6758 100H59.2461C59.0391 100 58.8047 100.07 58.5469 100.207C58.2734 100.328 58.0234 100.488 57.8008 100.695C57.5781 100.902 57.3867 101.125 57.2344 101.367C57.0781 101.605 57 101.84 57 102.062V109.938C57 110.16 57.0781 110.395 57.2344 110.633C57.3867 110.875 57.5781 111.098 57.8008 111.305C58.0234 111.512 58.2734 111.684 58.5469 111.82C58.8047 111.941 59.0391 112 59.2461 112H66.6758C66.9375 112 67.2031 111.941 67.4766 111.82C67.7539 111.684 68.0039 111.512 68.2266 111.305C68.4492 111.082 68.6406 110.84 68.793 110.582C68.9297 110.324 69 110.066 69 109.809ZM69 93.8086V72.1914C69 71.9336 68.9297 71.6758 68.793 71.418C68.6406 71.1602 68.4492 70.9297 68.2266 70.7227C68 70.4961 67.7539 70.3281 67.4766 70.207C67.2031 70.0703 66.9375 70 66.6797 70H59.2461C59.0391 70 58.8086 70.0703 58.5469 70.207C58.2734 70.3281 58.0234 70.4883 57.8008 70.6953C57.5742 70.9023 57.3867 71.125 57.2305 71.3672C57.0781 71.6055 57 71.8398 57 72.0625V93.9375C57 94.1602 57.0781 94.3945 57.2305 94.6328C57.3867 94.875 57.5742 95.0977 57.8008 95.3047C58.0234 95.5117 58.2734 95.6836 58.5469 95.8203C58.8047 95.9414 59.0391 96 59.2461 96H66.6758C66.9375 96 67.2031 95.9414 67.4766 95.8203C67.7539 95.6836 68 95.5117 68.2266 95.3047C68.4492 95.082 68.6406 94.8398 68.793 94.582C68.9297 94.3242 69 94.0664 69 93.8086Z" fill="#FB3B3B"/>
<path d="M144 54H36V49.3516C36 48.1914 36.2617 46.8281 36.9414 45.2305C37.8086 43.5313 38.8711 41.9883 40.1289 40.6094C41.6016 39.1484 43.1406 37.9414 44.7695 36.9492C46.1094 36.25 47.25 36 48.2617 36H131.738C132.75 36 133.891 36.25 135.23 36.9492C136.859 37.9414 138.398 39.1484 139.871 40.6094C141.129 41.9883 142.191 43.5313 143.059 45.2305C143.738 46.8281 144 48.1914 144 49.3516V54ZM144 111.289C144 111.859 143.828 112.891 143.09 114.488C142.199 116.262 141.102 117.84 139.789 119.27C138.391 120.781 136.922 122.02 135.371 123.02C134.059 123.859 133.238 124 132.82 124H47.1797C46.7617 124 45.9414 123.859 44.6289 123.02C43.0781 122.02 41.6094 120.781 40.2109 119.27C38.8984 117.84 37.8008 116.262 36.9102 114.488C36.1719 112.891 36 111.859 36 111.289V60H144V111.289ZM148.5 42.6914C147.352 40.3906 145.922 38.3203 144.199 36.4492C142.34 34.5898 140.328 33.0117 138.18 31.7188C136.039 30.5703 133.891 30 131.738 30H48.2617C46.1094 30 43.9609 30.5703 41.8203 31.7188C39.6719 33.0117 37.6602 34.5898 35.8008 36.4492C34.0781 38.3203 32.6484 40.3906 31.5 42.6914C30.5 44.9805 30 47.1992 30 49.3516V111.289C30 113.012 30.5 114.949 31.5 117.102C32.6484 119.391 34.0781 121.469 35.8008 123.328C37.5195 125.199 39.3789 126.77 41.3906 128.07C43.3906 129.352 45.3203 130 47.1797 130H132.82C134.68 130 136.609 129.352 138.609 128.07C140.621 126.77 142.48 125.199 144.199 123.328C145.922 121.469 147.352 119.391 148.5 117.102C149.5 114.949 150 113.012 150 111.289V49.3516C150 47.1992 149.5 44.9805 148.5 42.6914Z" fill="#FB3B3B"/>
</svg>
